<svg width="24" height="24" viewBox="0 0 24 24" fill="none" xmlns="http://www.w3.org/2000/svg">
<g clip-path="url(#clip0_32_846)">
<path d="M16.7183 9.38889H22.8889C23.4718 9.38889 23.9444 9.86147 23.9444 10.4444V16.065C23.9444 18.2076 22.2075 19.9444 20.065 19.9444H20.0466C17.9041 19.9447 16.1669 18.2081 16.1666 16.0655V9.94056C16.1666 9.63587 16.4136 9.38889 16.7183 9.38889Z" fill="#5059C9"/>
<path d="M20.8889 8.27777C22.2696 8.27777 23.3889 7.15848 23.3889 5.77777C23.3889 4.39706 22.2696 3.27777 20.8889 3.27777C19.5082 3.27777 18.3889 4.39706 18.3889 5.77777C18.3889 7.15848 19.5082 8.27777 20.8889 8.27777Z" fill="#5059C9"/>
<path d="M13.1111 8.27777C15.1055 8.27777 16.7222 6.66102 16.7222 4.66666C16.7222 2.67229 15.1055 1.05554 13.1111 1.05554C11.1168 1.05554 9.5 2.67229 9.5 4.66666C9.5 6.66102 11.1168 8.27777 13.1111 8.27777Z" fill="#7B83EB"/>
<path d="M17.9261 9.38889H7.74052C7.16449 9.40314 6.70882 9.88118 6.72219 10.4572V16.8678C6.64175 20.3246 9.3766 23.1932 12.8333 23.2778C16.29 23.1932 19.0248 20.3246 18.9444 16.8678V10.4572C18.9578 9.88118 18.5021 9.40314 17.9261 9.38889Z" fill="#7B83EB"/>
<path opacity="0.1" d="M13.3889 9.38889V18.3722C13.3861 18.7842 13.1365 19.1543 12.7556 19.3111C12.6343 19.3624 12.5039 19.3889 12.3722 19.3889H7.21111C7.13889 19.2055 7.07222 19.0222 7.01666 18.8333C6.82219 18.1959 6.72296 17.5331 6.72221 16.8667V10.4556C6.70886 9.88043 7.16377 9.40314 7.73888 9.38889H13.3889Z" fill="black"/>
<path opacity="0.2" d="M12.8333 9.38889V18.9278C12.8333 19.0595 12.8069 19.1898 12.7556 19.3111C12.5987 19.692 12.2286 19.9417 11.8167 19.9444H7.47222C7.37777 19.7611 7.28889 19.5778 7.21111 19.3889C7.13332 19.2 7.07222 19.0222 7.01666 18.8333C6.82218 18.1959 6.72296 17.5331 6.72221 16.8667V10.4556C6.70886 9.88043 7.16377 9.40314 7.73888 9.38889H12.8333Z" fill="black"/>
<path opacity="0.2" d="M12.8333 9.38889V17.8167C12.8291 18.3764 12.3764 18.8291 11.8167 18.8333H7.01666C6.82218 18.1959 6.72296 17.5331 6.72221 16.8667V10.4556C6.70886 9.88043 7.16377 9.40314 7.73888 9.38889H12.8333Z" fill="black"/>
<path opacity="0.2" d="M12.2778 9.38889V17.8167C12.2735 18.3764 11.8208 18.8291 11.2611 18.8333H7.01666C6.82218 18.1959 6.72296 17.5331 6.72221 16.8667V10.4556C6.70886 9.88043 7.16377 9.40314 7.73888 9.38889H12.2778Z" fill="black"/>
<path opacity="0.1" d="M13.3889 6.51666V8.26665C13.2944 8.27221 13.2055 8.27777 13.1111 8.27777C13.0166 8.27777 12.9278 8.27222 12.8333 8.26665C12.6458 8.25421 12.4598 8.22446 12.2778 8.17777C11.1528 7.91135 10.2233 7.12237 9.77776 6.05555C9.70109 5.87639 9.64157 5.69038 9.59998 5.5H12.3722C12.9328 5.50212 13.3867 5.95604 13.3889 6.51666Z" fill="black"/>
<path opacity="0.2" d="M12.8334 7.07223V8.26668C12.6459 8.25423 12.4599 8.22448 12.2778 8.17779C11.1528 7.91137 10.2234 7.12239 9.77783 6.05557H11.8167C12.3773 6.05769 12.8312 6.51163 12.8334 7.07223Z" fill="black"/>
<path opacity="0.2" d="M12.8334 7.07223V8.26668C12.6459 8.25423 12.4599 8.22448 12.2778 8.17779C11.1528 7.91137 10.2234 7.12239 9.77783 6.05557H11.8167C12.3773 6.05769 12.8312 6.51163 12.8334 7.07223Z" fill="black"/>
<path opacity="0.2" d="M12.2778 7.07221V8.17776C11.1528 7.91134 10.2234 7.12236 9.77783 6.05554H11.2612C11.8218 6.05767 12.2757 6.51161 12.2778 7.07221Z" fill="black"/>
<path d="M1.07387 6.05554H11.2594C11.8218 6.05554 12.2777 6.51147 12.2777 7.07387V17.2594C12.2777 17.8218 11.8218 18.2777 11.2594 18.2777H1.07387C0.511458 18.2777 0.055542 17.8218 0.055542 17.2594V7.07387C0.055542 6.51147 0.511469 6.05554 1.07387 6.05554Z" fill="url(#paint0_linear_32_846)"/>
<path d="M8.84669 9.93221H6.81057V15.4767H5.51336V9.93221H3.48669V8.85666H8.84669V9.93221Z" fill="white"/>
</g>
<defs>
<linearGradient id="paint0_linear_32_846" x1="2.17879" y1="5.25983" x2="10.1545" y2="19.0735" gradientUnits="userSpaceOnUse">
<stop stop-color="#5A62C3"/>
<stop offset="0.5" stop-color="#4D55BD"/>
<stop offset="1" stop-color="#3940AB"/>
</linearGradient>
<clipPath id="clip0_32_846">
<rect width="24" height="23" fill="white" transform="translate(0 0.5)"/>
</clipPath>
</defs>
</svg>
